<mxfile host="app.diagrams.net" modified="2024-05-15T19:40:20.426Z" agent="Mozilla/5.0 (Windows NT 10.0; Win64; x64) AppleWebKit/537.36 (KHTML, like Gecko) Chrome/122.0.0.0 YaBrowser/24.4.0.0 Safari/537.36" etag="ig4v4Cv1Ge_fFzIpgThU" version="24.4.0" type="device">
  <diagram name="Страница — 1" id="WSP21SUH42iXiaoLEgLa">
    <mxGraphModel dx="1311" dy="764" grid="1" gridSize="10" guides="1" tooltips="1" connect="1" arrows="1" fold="1" page="1" pageScale="1" pageWidth="827" pageHeight="1169" math="0" shadow="0">
      <root>
        <mxCell id="0" />
        <mxCell id="1" parent="0" />
        <mxCell id="PvQkwaUUZgcSFkSXpzX7-1" value="ID_Арендодателя" style="ellipse;whiteSpace=wrap;html=1;" vertex="1" parent="1">
          <mxGeometry x="30" y="190" width="120" height="80" as="geometry" />
        </mxCell>
        <mxCell id="PvQkwaUUZgcSFkSXpzX7-2" value="ФИО" style="ellipse;whiteSpace=wrap;html=1;" vertex="1" parent="1">
          <mxGeometry x="70" y="40" width="120" height="80" as="geometry" />
        </mxCell>
        <mxCell id="PvQkwaUUZgcSFkSXpzX7-3" value="Контакты" style="ellipse;whiteSpace=wrap;html=1;" vertex="1" parent="1">
          <mxGeometry x="180" y="80" width="120" height="80" as="geometry" />
        </mxCell>
        <mxCell id="PvQkwaUUZgcSFkSXpzX7-4" value="Дата_рождения" style="ellipse;whiteSpace=wrap;html=1;" vertex="1" parent="1">
          <mxGeometry x="220" y="160" width="120" height="80" as="geometry" />
        </mxCell>
        <mxCell id="PvQkwaUUZgcSFkSXpzX7-5" value="Дата_регистрации" style="ellipse;whiteSpace=wrap;html=1;" vertex="1" parent="1">
          <mxGeometry x="190" y="240" width="120" height="80" as="geometry" />
        </mxCell>
        <mxCell id="PvQkwaUUZgcSFkSXpzX7-6" value="email" style="ellipse;whiteSpace=wrap;html=1;" vertex="1" parent="1">
          <mxGeometry x="150" y="320" width="120" height="80" as="geometry" />
        </mxCell>
        <mxCell id="PvQkwaUUZgcSFkSXpzX7-7" value="Номер_телефона" style="ellipse;whiteSpace=wrap;html=1;" vertex="1" parent="1">
          <mxGeometry x="20" y="320" width="120" height="80" as="geometry" />
        </mxCell>
        <mxCell id="PvQkwaUUZgcSFkSXpzX7-8" value="" style="endArrow=classic;html=1;rounded=0;entryX=0.293;entryY=0.961;entryDx=0;entryDy=0;entryPerimeter=0;" edge="1" parent="1" target="PvQkwaUUZgcSFkSXpzX7-2">
          <mxGeometry width="50" height="50" relative="1" as="geometry">
            <mxPoint x="80" y="190" as="sourcePoint" />
            <mxPoint x="130" y="140" as="targetPoint" />
          </mxGeometry>
        </mxCell>
        <mxCell id="PvQkwaUUZgcSFkSXpzX7-10" value="" style="endArrow=classic;html=1;rounded=0;exitX=0.765;exitY=0.078;exitDx=0;exitDy=0;exitPerimeter=0;" edge="1" parent="1" source="PvQkwaUUZgcSFkSXpzX7-1" target="PvQkwaUUZgcSFkSXpzX7-3">
          <mxGeometry width="50" height="50" relative="1" as="geometry">
            <mxPoint x="210" y="250" as="sourcePoint" />
            <mxPoint x="260" y="200" as="targetPoint" />
          </mxGeometry>
        </mxCell>
        <mxCell id="PvQkwaUUZgcSFkSXpzX7-11" value="" style="endArrow=classic;html=1;rounded=0;exitX=1;exitY=0;exitDx=0;exitDy=0;entryX=0;entryY=0.5;entryDx=0;entryDy=0;" edge="1" parent="1" source="PvQkwaUUZgcSFkSXpzX7-1" target="PvQkwaUUZgcSFkSXpzX7-4">
          <mxGeometry width="50" height="50" relative="1" as="geometry">
            <mxPoint x="210" y="250" as="sourcePoint" />
            <mxPoint x="260" y="200" as="targetPoint" />
          </mxGeometry>
        </mxCell>
        <mxCell id="PvQkwaUUZgcSFkSXpzX7-12" value="" style="endArrow=classic;html=1;rounded=0;exitX=1;exitY=0.5;exitDx=0;exitDy=0;" edge="1" parent="1" source="PvQkwaUUZgcSFkSXpzX7-1" target="PvQkwaUUZgcSFkSXpzX7-5">
          <mxGeometry width="50" height="50" relative="1" as="geometry">
            <mxPoint x="210" y="250" as="sourcePoint" />
            <mxPoint x="260" y="200" as="targetPoint" />
          </mxGeometry>
        </mxCell>
        <mxCell id="PvQkwaUUZgcSFkSXpzX7-13" value="" style="endArrow=classic;html=1;rounded=0;exitX=0.775;exitY=0.929;exitDx=0;exitDy=0;exitPerimeter=0;" edge="1" parent="1" source="PvQkwaUUZgcSFkSXpzX7-1" target="PvQkwaUUZgcSFkSXpzX7-6">
          <mxGeometry width="50" height="50" relative="1" as="geometry">
            <mxPoint x="210" y="350" as="sourcePoint" />
            <mxPoint x="260" y="300" as="targetPoint" />
          </mxGeometry>
        </mxCell>
        <mxCell id="PvQkwaUUZgcSFkSXpzX7-14" value="" style="endArrow=classic;html=1;rounded=0;exitX=0.389;exitY=0.993;exitDx=0;exitDy=0;exitPerimeter=0;entryX=0.5;entryY=0;entryDx=0;entryDy=0;" edge="1" parent="1" source="PvQkwaUUZgcSFkSXpzX7-1" target="PvQkwaUUZgcSFkSXpzX7-7">
          <mxGeometry width="50" height="50" relative="1" as="geometry">
            <mxPoint x="210" y="350" as="sourcePoint" />
            <mxPoint x="260" y="300" as="targetPoint" />
          </mxGeometry>
        </mxCell>
        <mxCell id="PvQkwaUUZgcSFkSXpzX7-15" value="ID_Арендодателя" style="ellipse;whiteSpace=wrap;html=1;" vertex="1" parent="1">
          <mxGeometry x="50" y="630" width="120" height="80" as="geometry" />
        </mxCell>
        <mxCell id="PvQkwaUUZgcSFkSXpzX7-16" value="ФИО" style="ellipse;whiteSpace=wrap;html=1;" vertex="1" parent="1">
          <mxGeometry x="240" y="680" width="120" height="80" as="geometry" />
        </mxCell>
        <mxCell id="PvQkwaUUZgcSFkSXpzX7-17" value="Контакты" style="ellipse;whiteSpace=wrap;html=1;" vertex="1" parent="1">
          <mxGeometry x="50" y="530" width="120" height="80" as="geometry" />
        </mxCell>
        <mxCell id="PvQkwaUUZgcSFkSXpzX7-18" value="Дата_рождения" style="ellipse;whiteSpace=wrap;html=1;" vertex="1" parent="1">
          <mxGeometry x="200" y="780" width="120" height="80" as="geometry" />
        </mxCell>
        <mxCell id="PvQkwaUUZgcSFkSXpzX7-19" value="Дата_регистрации" style="ellipse;whiteSpace=wrap;html=1;" vertex="1" parent="1">
          <mxGeometry x="40" y="790" width="120" height="80" as="geometry" />
        </mxCell>
        <mxCell id="PvQkwaUUZgcSFkSXpzX7-20" value="email" style="ellipse;whiteSpace=wrap;html=1;" vertex="1" parent="1">
          <mxGeometry x="240" y="500" width="120" height="80" as="geometry" />
        </mxCell>
        <mxCell id="PvQkwaUUZgcSFkSXpzX7-21" value="Номер_телефона" style="ellipse;whiteSpace=wrap;html=1;" vertex="1" parent="1">
          <mxGeometry x="250" y="585" width="120" height="80" as="geometry" />
        </mxCell>
        <mxCell id="PvQkwaUUZgcSFkSXpzX7-22" value="" style="endArrow=classic;html=1;rounded=0;entryX=0;entryY=0.5;entryDx=0;entryDy=0;" edge="1" parent="1" target="PvQkwaUUZgcSFkSXpzX7-16">
          <mxGeometry width="50" height="50" relative="1" as="geometry">
            <mxPoint x="180" y="700" as="sourcePoint" />
            <mxPoint x="150" y="580" as="targetPoint" />
          </mxGeometry>
        </mxCell>
        <mxCell id="PvQkwaUUZgcSFkSXpzX7-24" value="" style="endArrow=classic;html=1;rounded=0;" edge="1" parent="1" target="PvQkwaUUZgcSFkSXpzX7-18">
          <mxGeometry width="50" height="50" relative="1" as="geometry">
            <mxPoint x="150" y="720" as="sourcePoint" />
            <mxPoint x="280" y="640" as="targetPoint" />
          </mxGeometry>
        </mxCell>
        <mxCell id="PvQkwaUUZgcSFkSXpzX7-25" value="" style="endArrow=classic;html=1;rounded=0;" edge="1" parent="1" target="PvQkwaUUZgcSFkSXpzX7-19">
          <mxGeometry width="50" height="50" relative="1" as="geometry">
            <mxPoint x="110" y="720" as="sourcePoint" />
            <mxPoint x="280" y="640" as="targetPoint" />
          </mxGeometry>
        </mxCell>
        <mxCell id="PvQkwaUUZgcSFkSXpzX7-27" value="" style="endArrow=classic;html=1;rounded=0;entryX=0;entryY=0;entryDx=0;entryDy=0;exitX=1.007;exitY=0.568;exitDx=0;exitDy=0;exitPerimeter=0;" edge="1" parent="1" source="PvQkwaUUZgcSFkSXpzX7-17" target="PvQkwaUUZgcSFkSXpzX7-21">
          <mxGeometry width="50" height="50" relative="1" as="geometry">
            <mxPoint x="130" y="780" as="sourcePoint" />
            <mxPoint x="280" y="740" as="targetPoint" />
          </mxGeometry>
        </mxCell>
        <mxCell id="PvQkwaUUZgcSFkSXpzX7-28" value="" style="endArrow=classic;html=1;rounded=0;exitX=1;exitY=0.375;exitDx=0;exitDy=0;exitPerimeter=0;entryX=0;entryY=0.625;entryDx=0;entryDy=0;entryPerimeter=0;" edge="1" parent="1" source="PvQkwaUUZgcSFkSXpzX7-17" target="PvQkwaUUZgcSFkSXpzX7-20">
          <mxGeometry width="50" height="50" relative="1" as="geometry">
            <mxPoint x="220" y="550" as="sourcePoint" />
            <mxPoint x="237" y="547" as="targetPoint" />
          </mxGeometry>
        </mxCell>
        <mxCell id="PvQkwaUUZgcSFkSXpzX7-32" value="" style="endArrow=none;html=1;rounded=0;" edge="1" parent="1">
          <mxGeometry width="50" height="50" relative="1" as="geometry">
            <mxPoint x="180" y="520" as="sourcePoint" />
            <mxPoint x="180" y="520" as="targetPoint" />
            <Array as="points">
              <mxPoint x="40" y="520" />
              <mxPoint x="40" y="720" />
              <mxPoint x="180" y="720" />
            </Array>
          </mxGeometry>
        </mxCell>
        <mxCell id="PvQkwaUUZgcSFkSXpzX7-33" value="ID_Арендодателя" style="ellipse;whiteSpace=wrap;html=1;" vertex="1" parent="1">
          <mxGeometry x="40" y="1160" width="120" height="80" as="geometry" />
        </mxCell>
        <mxCell id="PvQkwaUUZgcSFkSXpzX7-34" value="ФИО" style="ellipse;whiteSpace=wrap;html=1;" vertex="1" parent="1">
          <mxGeometry x="80" y="1010" width="120" height="80" as="geometry" />
        </mxCell>
        <mxCell id="PvQkwaUUZgcSFkSXpzX7-35" value="Контакты" style="ellipse;whiteSpace=wrap;html=1;" vertex="1" parent="1">
          <mxGeometry x="190" y="1050" width="120" height="80" as="geometry" />
        </mxCell>
        <mxCell id="PvQkwaUUZgcSFkSXpzX7-36" value="Дата_рождения" style="ellipse;whiteSpace=wrap;html=1;" vertex="1" parent="1">
          <mxGeometry x="230" y="1130" width="120" height="80" as="geometry" />
        </mxCell>
        <mxCell id="PvQkwaUUZgcSFkSXpzX7-37" value="Дата_регистрации" style="ellipse;whiteSpace=wrap;html=1;" vertex="1" parent="1">
          <mxGeometry x="200" y="1210" width="120" height="80" as="geometry" />
        </mxCell>
        <mxCell id="PvQkwaUUZgcSFkSXpzX7-38" value="email" style="ellipse;whiteSpace=wrap;html=1;" vertex="1" parent="1">
          <mxGeometry x="300" y="940" width="120" height="80" as="geometry" />
        </mxCell>
        <mxCell id="PvQkwaUUZgcSFkSXpzX7-39" value="Номер_телефона" style="ellipse;whiteSpace=wrap;html=1;" vertex="1" parent="1">
          <mxGeometry x="390" y="1040" width="120" height="80" as="geometry" />
        </mxCell>
        <mxCell id="PvQkwaUUZgcSFkSXpzX7-40" value="" style="endArrow=classic;html=1;rounded=0;entryX=0.293;entryY=0.961;entryDx=0;entryDy=0;entryPerimeter=0;" edge="1" parent="1" target="PvQkwaUUZgcSFkSXpzX7-34">
          <mxGeometry width="50" height="50" relative="1" as="geometry">
            <mxPoint x="90" y="1160" as="sourcePoint" />
            <mxPoint x="140" y="1110" as="targetPoint" />
          </mxGeometry>
        </mxCell>
        <mxCell id="PvQkwaUUZgcSFkSXpzX7-41" value="" style="endArrow=classic;html=1;rounded=0;exitX=0.765;exitY=0.078;exitDx=0;exitDy=0;exitPerimeter=0;" edge="1" parent="1" source="PvQkwaUUZgcSFkSXpzX7-33" target="PvQkwaUUZgcSFkSXpzX7-35">
          <mxGeometry width="50" height="50" relative="1" as="geometry">
            <mxPoint x="220" y="1220" as="sourcePoint" />
            <mxPoint x="270" y="1170" as="targetPoint" />
          </mxGeometry>
        </mxCell>
        <mxCell id="PvQkwaUUZgcSFkSXpzX7-42" value="" style="endArrow=classic;html=1;rounded=0;exitX=1;exitY=0;exitDx=0;exitDy=0;entryX=0;entryY=0.5;entryDx=0;entryDy=0;" edge="1" parent="1" source="PvQkwaUUZgcSFkSXpzX7-33" target="PvQkwaUUZgcSFkSXpzX7-36">
          <mxGeometry width="50" height="50" relative="1" as="geometry">
            <mxPoint x="220" y="1220" as="sourcePoint" />
            <mxPoint x="270" y="1170" as="targetPoint" />
          </mxGeometry>
        </mxCell>
        <mxCell id="PvQkwaUUZgcSFkSXpzX7-43" value="" style="endArrow=classic;html=1;rounded=0;exitX=1;exitY=0.5;exitDx=0;exitDy=0;" edge="1" parent="1" source="PvQkwaUUZgcSFkSXpzX7-33" target="PvQkwaUUZgcSFkSXpzX7-37">
          <mxGeometry width="50" height="50" relative="1" as="geometry">
            <mxPoint x="220" y="1220" as="sourcePoint" />
            <mxPoint x="270" y="1170" as="targetPoint" />
          </mxGeometry>
        </mxCell>
        <mxCell id="PvQkwaUUZgcSFkSXpzX7-44" value="" style="endArrow=classic;html=1;rounded=0;" edge="1" parent="1" source="PvQkwaUUZgcSFkSXpzX7-35" target="PvQkwaUUZgcSFkSXpzX7-38">
          <mxGeometry width="50" height="50" relative="1" as="geometry">
            <mxPoint x="220" y="1320" as="sourcePoint" />
            <mxPoint x="270" y="1270" as="targetPoint" />
          </mxGeometry>
        </mxCell>
        <mxCell id="PvQkwaUUZgcSFkSXpzX7-45" value="" style="endArrow=classic;html=1;rounded=0;exitX=1;exitY=0.5;exitDx=0;exitDy=0;entryX=0;entryY=0.5;entryDx=0;entryDy=0;" edge="1" parent="1" source="PvQkwaUUZgcSFkSXpzX7-35" target="PvQkwaUUZgcSFkSXpzX7-39">
          <mxGeometry width="50" height="50" relative="1" as="geometry">
            <mxPoint x="220" y="1320" as="sourcePoint" />
            <mxPoint x="270" y="1270" as="targetPoint" />
          </mxGeometry>
        </mxCell>
      </root>
    </mxGraphModel>
  </diagram>
</mxfile>
